<svg width="34" height="24" viewBox="0 0 34 24" fill="none" xmlns="http://www.w3.org/2000/svg"><g clip-path="url(#clip0_703_2026)"><path d="M33.25 3.743a4.294 4.294 0 00-1.104-1.913A4.27 4.27 0 0030.24.722C27.602 0 16.983 0 16.983 0S6.363.022 3.725.744a4.27 4.27 0 00-1.906 1.108A4.295 4.295 0 00.716 3.765C-.082 8.472-.392 15.643.738 20.161a4.294 4.294 0 001.103 1.913 4.27 4.27 0 001.906 1.108c2.638.723 13.257.723 13.257.723s10.62 0 13.258-.723a4.27 4.27 0 001.905-1.107c.528-.53.909-1.19 1.104-1.914.842-4.713 1.101-11.88-.022-16.418z" fill="red"/><path d="M13.603 17.075l8.81-5.122-8.81-5.123v10.245z" fill="#fff"/></g><defs><clipPath id="clip0_703_2026"><path fill="#fff" d="M0 0h34v24H0z"/></clipPath></defs></svg>