<svg width="24" height="24" viewBox="0 0 24 24" fill="none" xmlns="http://www.w3.org/2000/svg"><g clip-path="url(#clip0_9049_4275)"><path d="M12 0C5.373 0 0 5.373 0 12c0 6.628 5.373 12 12 12 6.628 0 12-5.372 12-12 0-6.627-5.372-12-12-12zm0 22.524C6.21 22.524 1.5 17.79 1.5 12 1.5 6.21 6.21 1.5 12 1.5S22.5 6.21 22.5 12 17.79 22.524 12 22.524zm4.79-14.915l-7.042 7.085-3.17-3.17a.75.75 0 00-1.061 1.06l3.712 3.712a.751.751 0 001.15-.108L17.85 8.67a.75.75 0 00-1.06-1.06z" fill="#D4AF37"/></g><defs><clipPath id="clip0_9049_4275"><path fill="#fff" d="M0 0h24v24H0z"/></clipPath></defs></svg>