<svg width="24" height="24" viewBox="0 0 24 24" fill="none" xmlns="http://www.w3.org/2000/svg"><path d="M12 19.645a10.075 10.075 0 00-4.555-1.761 16.703 16.703 0 00-3.535-.333 1.15 1.15 0 01-1.16-1.15l.021-10.893a1.15 1.15 0 011.074-1.15 16.6 16.6 0 013.6.322A10.24 10.24 0 0112 6.442m0 13.203V6.442m0 13.203a10.075 10.075 0 014.555-1.761 16.703 16.703 0 013.535-.333 1.15 1.15 0 001.16-1.15l-.022-10.893a1.15 1.15 0 00-1.073-1.15 16.6 16.6 0 00-3.6.322A10.24 10.24 0 0012 6.442" stroke="#D4AF37" stroke-width="1.8" stroke-linecap="round" stroke-linejoin="round"/></svg>