<svg width="24" height="24" viewBox="0 0 24 24" fill="none" xmlns="http://www.w3.org/2000/svg"><path d="M15 14.75a5.74 5.74 0 01-4.07-1.68A5.77 5.77 0 1115 14.75zm0-10a4.25 4.25 0 10.021 8.5 4.25 4.25 0 00-.02-8.5z" fill="#333"/><path d="M4.5 20.25A.75.75 0 014 19l6.46-6.47a.753.753 0 111.06 1.07L5 20a.74.74 0 01-.5.25z" fill="#333"/><path d="M8 20.75a.739.739 0 01-.53-.22l-2-2a.75.75 0 011.06-1.06l2 2A.75.75 0 018 20.75zm2-2a.739.739 0 01-.53-.22l-2-2a.75.75 0 111.06-1.06l2 2a.75.75 0 01-.53 1.28z" fill="#333"/></svg>