<svg width="24" height="24" viewBox="0 0 24 24" fill="none" xmlns="http://www.w3.org/2000/svg"><path d="M3 10.898a4.227 4.227 0 014.222-4.222h3.501c.256-.015 4.717-.33 8.964-3.892A1.407 1.407 0 0122 3.861v14.074a1.407 1.407 0 01-2.313 1.077c-3.322-2.786-6.773-3.585-8.243-3.808v2.79a1.408 1.408 0 01-.626 1.172l-.967.645a1.406 1.406 0 01-2.145-.82l-1.035-3.903A4.228 4.228 0 013 10.898zm17.593 7.03V3.862c-3.766 3.159-7.62 3.958-9.149 4.155v5.76c1.527.2 5.38.998 9.149 4.153zm-11.524.704v.01l.968-.645V15.12h-1.9l.932 3.512zm-1.847-4.92h2.815V8.084H7.222a2.815 2.815 0 000 5.63z" fill="#333"/></svg>