<svg width="24" height="24" viewBox="0 0 24 24" fill="none" xmlns="http://www.w3.org/2000/svg"><path d="M15.75 12c-.964 0-1.896-.43-2.625-1.211a4.683 4.683 0 01-1.219-2.86c-.081-1.154.27-2.215.991-2.988.72-.774 1.728-1.191 2.853-1.191 1.117 0 2.127.425 2.845 1.196.725.78 1.078 1.839.997 2.983a4.699 4.699 0 01-1.219 2.86c-.727.78-1.659 1.211-2.623 1.211zm6.18 8.25H9.57a1.299 1.299 0 01-1.03-.5 1.416 1.416 0 01-.247-1.21c.395-1.584 1.373-2.898 2.828-3.8 1.291-.8 2.935-1.24 4.629-1.24 1.727 0 3.328.422 4.627 1.221 1.458.897 2.438 2.219 2.83 3.823a1.418 1.418 0 01-.25 1.208 1.296 1.296 0 01-1.027.498zM6.89 12.187c-1.649 0-3.1-1.533-3.234-3.418-.066-.966.235-1.859.844-2.514.603-.648 1.453-1.005 2.39-1.005.938 0 1.782.36 2.388 1.011.614.66.914 1.551.844 2.509-.135 1.884-1.585 3.418-3.231 3.418zm3.078 1.475c-.824-.403-1.894-.605-3.077-.605-1.38 0-2.722.36-3.777 1.013-1.195.742-2 1.823-2.325 3.128a1.284 1.284 0 00.225 1.095 1.187 1.187 0 00.942.457h5.203a.375.375 0 00.369-.308.86.86 0 01.019-.088c.397-1.597 1.329-2.946 2.705-3.93a.374.374 0 00-.03-.627 3.777 3.777 0 00-.254-.135z" fill="#DDD"/></svg>