<svg width="24" height="24" viewBox="0 0 24 24" fill="none" xmlns="http://www.w3.org/2000/svg"><path d="M22 7.978a.952.952 0 00-.276-.675l-4.027-4.027A.95.95 0 0017.021 3a.95.95 0 00-.674.276l-2.689 2.688L3.276 16.347A.95.95 0 003 17.02v4.028a.95.95 0 00.95.95h4.028a.952.952 0 00.722-.276L19.026 11.34l2.698-2.64a1.14 1.14 0 00.21-.314.955.955 0 000-.228.672.672 0 000-.133L22 7.978zM7.589 20.098H4.9V17.41l9.434-9.432 2.688 2.688-9.433 9.433zM18.36 9.328l-2.688-2.689 1.349-1.34 2.679 2.68-1.34 1.349z" fill="#D4AF37"/></svg>