<svg width="24" height="24" viewBox="0 0 24 24" fill="none" xmlns="http://www.w3.org/2000/svg"><path d="M4.929 8.571a.786.786 0 000 1.572h11a.786.786 0 100-1.572h-11zm0 3.143a.785.785 0 00-.786.786v3.143a.786.786 0 00.786.785H8.07a.785.785 0 00.786-.785V12.5a.786.786 0 00-.786-.786H4.93zm.785 3.143v-1.571h1.572v1.571H5.714zm5.5-3.143a.786.786 0 100 1.572h4.715a.786.786 0 000-1.572h-4.715zm0 3.143a.786.786 0 000 1.572h4.715a.786.786 0 100-1.572h-4.715zM1 7a3.143 3.143 0 013.143-3.143h12.571A3.143 3.143 0 0119.857 7 3.143 3.143 0 0123 10.143v7.071a3.928 3.928 0 01-3.929 3.929H4.93A3.929 3.929 0 011 17.214V7zm18.071 10.214a.786.786 0 01-.785-.785V7a1.571 1.571 0 00-1.572-1.571H4.143A1.571 1.571 0 002.57 7v10.214a2.357 2.357 0 002.358 2.357H19.07a2.357 2.357 0 002.358-2.357v-7.071a1.571 1.571 0 00-1.572-1.572v7.857a.785.785 0 01-.786.786z" fill="#333"/></svg>