<svg width="24" height="24" viewBox="0 0 24 24" fill="none" xmlns="http://www.w3.org/2000/svg"><path d="M13.039 11.997a1.038 1.038 0 11-2.077 0 1.038 1.038 0 012.077 0zM8.192 10.96a1.039 1.039 0 100 2.077 1.039 1.039 0 000-2.077zm7.616 0a1.038 1.038 0 100 2.076 1.038 1.038 0 000-2.076zM21 11.997a9.003 9.003 0 01-8.768 9 8.998 8.998 0 01-4.462-1.053l-2.947.982a1.384 1.384 0 01-1.751-1.752l.982-2.946a9.002 9.002 0 019.814-13.032A9 9 0 0121 11.997zm-1.385 0A7.616 7.616 0 105.407 15.81a.692.692 0 01.057.566l-1.08 3.237 3.237-1.079a.68.68 0 01.565.057 7.614 7.614 0 0011.43-6.594z" fill="#333"/></svg>