<svg width="24" height="24" viewBox="0 0 24 24" fill="none" xmlns="http://www.w3.org/2000/svg"><path d="M12.25 9.067c-.752 0-1.363.611-1.363 1.364v.117a.818.818 0 11-1.637 0v-.117a3 3 0 013-3h.127a2.874 2.874 0 011.87 5.055l-.84.72a.983.983 0 00-.338.736v.581a.818.818 0 11-1.637 0v-.581c0-.761.332-1.483.91-1.978l.84-.72a1.237 1.237 0 00-.805-2.177h-.126zm0 9.002a1.091 1.091 0 100-2.182 1.091 1.091 0 000 2.182z" fill="#333"/><path d="M2.25 12.25a10 10 0 1120 0 10 10 0 01-20 0zm10-8.286a8.286 8.286 0 100 16.572 8.286 8.286 0 000-16.572z" fill="#333"/></svg>