<svg width="24" height="24" viewBox="0 0 24 24" fill="none" xmlns="http://www.w3.org/2000/svg"><path fill-rule="evenodd" clip-rule="evenodd" d="M16.5 2.25a3.25 3.25 0 00-3.2 3.824L8.57 9.386l-.068.053a3.25 3.25 0 100 5.121l.068.054 4.73 3.312a3.263 3.263 0 00.722 2.677 3.25 3.25 0 10-.105-4.076l-4.48-3.137c.2-.422.313-.893.313-1.391s-.112-.97-.312-1.391l4.48-3.136A3.25 3.25 0 1016.5 2.25zM14.75 5.5a1.75 1.75 0 113.5 0 1.75 1.75 0 01-3.5 0zM6.5 10.25a1.75 1.75 0 100 3.5 1.75 1.75 0 000-3.5zm10 6.5a1.75 1.75 0 100 3.5 1.75 1.75 0 000-3.5z" fill="#333"/></svg>